<svg width="156" height="156" viewBox="0 0 156 156" fill="none" xmlns="http://www.w3.org/2000/svg">
<path fill-rule="evenodd" clip-rule="evenodd" d="M11.162 48.838C8.742 51.258 0 72.035 0 75.367C0 76.815 1.219 79.291 2.75 80.952C5.25 83.663 7.483 84.393 27.269 88.968C39.242 91.735 50.345 94 51.943 94C56.149 94 59.479 90.713 69.015 77.15C73.682 70.512 77.725 65.071 78 65.057C78.275 65.043 82.325 70.468 87 77.113C96.665 90.851 99.864 94 104.155 94C105.806 94 116.909 91.742 128.829 88.983C148.57 84.413 150.745 83.699 153.25 80.967C156.995 76.883 156.768 73.944 151.81 62.322C146.654 50.234 145.346 48.125 142.572 47.429C141.372 47.127 126.352 48.485 109.195 50.446L78 54.011L47.477 50.505C30.689 48.577 16.064 47 14.977 47C13.89 47 12.173 47.827 11.162 48.838ZM15.092 57.25C14.621 58.488 12.761 63.007 10.96 67.293C9.035 71.877 8.06 75.437 8.593 75.937C9.858 77.123 49.588 86.226 51.714 85.817C53.16 85.538 71.284 61.976 70.596 61.269C70.278 60.942 20.37 55 17.945 55C16.798 55 15.586 55.955 15.092 57.25ZM110.163 58.001C97.327 59.563 86.583 61.084 86.286 61.381C85.209 62.457 102.534 85.493 104.652 85.801C106.55 86.078 145.477 77.441 147.236 76.354C148.591 75.517 148.073 73.521 144.14 64.426C140.414 55.81 140.162 55.494 136.89 55.331C135.026 55.237 122.998 56.439 110.163 58.001ZM75.035 84.934C74.388 86.144 74 98.085 74 116.817V146.765L48.991 140.498C35.237 137.051 23.312 133.674 22.491 132.993C21.267 131.977 21 128.413 21 113.084V94.413L17 93.346L13 92.278V112.238C13 134.313 13.744 137.782 19.072 140.537C20.614 141.334 34.533 145.135 50.004 148.983L78.133 155.98L106.188 148.953C121.618 145.088 135.53 141.26 137.104 140.446C142.461 137.676 143 135.14 143 112.689V92.278L139 93.346L135 94.413V113.728C135 132.806 134.972 133.055 132.75 134.005C131.512 134.535 120.375 137.469 108 140.526C95.625 143.583 84.713 146.32 83.75 146.609C82.11 147.102 82 145.198 82 116.267C82 93.593 81.681 85.081 80.8 84.2C78.998 82.398 76.202 82.754 75.035 84.934Z" fill="#0A0593"/>
<path fill-rule="evenodd" clip-rule="evenodd" d="M69.7544 0.590849C51.6671 2.05224 33.4844 8.26095 21.0862 17.2097C16.4075 20.587 15.8103 22.8626 18.9678 25.2866C21.9465 27.5744 24.6485 27.1915 29.7585 23.7565C39.1181 17.4658 51.993 12.559 64.0706 10.6797C72.7876 9.32367 90.0934 9.76017 98.2055 11.5405C106.632 13.3906 118.457 18.0926 124.531 22.0088C132.734 27.2974 134.769 27.7915 138.031 25.2866C141.078 22.947 140.59 20.374 136.557 17.5193C127.012 10.7635 113.556 5.08035 101.237 2.60164C94.9168 1.33056 80.62 -0.197753 77.0926 0.0210772C76.4075 0.0635628 73.1052 0.31964 69.7544 0.590849ZM69.2246 24.3665C59.8437 25.6841 49.4381 29.4618 43.6028 33.6685C39.3766 36.7152 38.865 38.4059 41.4162 40.8957C43.818 43.2405 47.4523 42.9973 52.2811 40.1676C60.4015 35.4092 67.9808 33.4741 78.4993 33.4741C88.9853 33.4741 96.438 35.3702 104.805 40.167C109.715 42.9816 113.204 43.2178 115.583 40.8957C117.161 39.3546 117.557 37.5114 116.683 35.7631C115.456 33.3071 101.03 26.9418 92.7241 25.1929C87.8347 24.1628 74.1109 23.6803 69.2246 24.3665Z" fill="#0A0593"/>
</svg>
